<mxfile host="app.diagrams.net" agent="Mozilla/5.0 (Windows NT 10.0; Win64; x64) AppleWebKit/537.36 (KHTML, like Gecko) Chrome/135.0.0.0 Safari/537.36" version="26.1.1">
  <diagram id="C5RBs43oDa-KdzZeNtuy" name="Page-1">
    <mxGraphModel dx="1861" dy="426" grid="1" gridSize="10" guides="1" tooltips="1" connect="1" arrows="1" fold="1" page="1" pageScale="1" pageWidth="827" pageHeight="1169" math="0" shadow="0">
      <root>
        <mxCell id="WIyWlLk6GJQsqaUBKTNV-0" />
        <mxCell id="WIyWlLk6GJQsqaUBKTNV-1" parent="WIyWlLk6GJQsqaUBKTNV-0" />
        <mxCell id="4NDoe3Q7L930IOSC8Iq2-6" value="&lt;b&gt;EmpresaConstruccion (Singleton)&lt;/b&gt;" style="swimlane;fontStyle=0;childLayout=stackLayout;horizontal=1;startSize=40;fillColor=none;horizontalStack=0;resizeParent=1;resizeParentMax=0;resizeLast=0;collapsible=1;marginBottom=0;whiteSpace=wrap;html=1;" vertex="1" parent="WIyWlLk6GJQsqaUBKTNV-1">
          <mxGeometry x="90" y="480" width="180" height="66" as="geometry" />
        </mxCell>
        <mxCell id="4NDoe3Q7L930IOSC8Iq2-7" value="&lt;div&gt;+ construirResidencia()&lt;/div&gt;" style="text;strokeColor=none;fillColor=none;align=left;verticalAlign=top;spacingLeft=4;spacingRight=4;overflow=hidden;rotatable=0;points=[[0,0.5],[1,0.5]];portConstraint=eastwest;whiteSpace=wrap;html=1;" vertex="1" parent="4NDoe3Q7L930IOSC8Iq2-6">
          <mxGeometry y="40" width="180" height="26" as="geometry" />
        </mxCell>
        <mxCell id="4NDoe3Q7L930IOSC8Iq2-10" value="&lt;b&gt;Usuario&lt;/b&gt;" style="html=1;whiteSpace=wrap;" vertex="1" parent="WIyWlLk6GJQsqaUBKTNV-1">
          <mxGeometry x="390" y="480" width="110" height="50" as="geometry" />
        </mxCell>
        <mxCell id="4NDoe3Q7L930IOSC8Iq2-17" value="&lt;div&gt;&amp;lt;&amp;lt;Inferface&amp;gt;&amp;gt;&lt;/div&gt;&lt;span style=&quot;font-weight: 700;&quot;&gt;FabricaComponentesApartamento&lt;/span&gt;&lt;div&gt;&lt;b&gt;(abstract factory&lt;/b&gt;&lt;b style=&quot;background-color: transparent; color: light-dark(rgb(0, 0, 0), rgb(255, 255, 255));&quot;&gt;)&lt;/b&gt;&lt;/div&gt;" style="swimlane;fontStyle=0;childLayout=stackLayout;horizontal=1;startSize=50;fillColor=none;horizontalStack=0;resizeParent=1;resizeParentMax=0;resizeLast=0;collapsible=1;marginBottom=0;whiteSpace=wrap;html=1;" vertex="1" parent="WIyWlLk6GJQsqaUBKTNV-1">
          <mxGeometry x="170" y="780" width="240" height="140" as="geometry" />
        </mxCell>
        <mxCell id="4NDoe3Q7L930IOSC8Iq2-18" value="&lt;div&gt;+ crearPuerta()&lt;/div&gt;&lt;div&gt;+ crearVentana()&lt;/div&gt;&lt;div&gt;+ crearCocina()&lt;/div&gt;&lt;div&gt;+ crearBanio()&lt;/div&gt;&lt;div&gt;+ crearHabitacion()&lt;/div&gt;" style="text;strokeColor=none;fillColor=none;align=left;verticalAlign=top;spacingLeft=4;spacingRight=4;overflow=hidden;rotatable=0;points=[[0,0.5],[1,0.5]];portConstraint=eastwest;whiteSpace=wrap;html=1;" vertex="1" parent="4NDoe3Q7L930IOSC8Iq2-17">
          <mxGeometry y="50" width="240" height="90" as="geometry" />
        </mxCell>
        <mxCell id="4NDoe3Q7L930IOSC8Iq2-23" value="&lt;b&gt;FabricaComponentes&lt;/b&gt;&lt;div&gt;&lt;b&gt;ApartamentoMinimalista&lt;/b&gt;&lt;/div&gt;" style="swimlane;fontStyle=0;childLayout=stackLayout;horizontal=1;startSize=50;fillColor=none;horizontalStack=0;resizeParent=1;resizeParentMax=0;resizeLast=0;collapsible=1;marginBottom=0;whiteSpace=wrap;html=1;" vertex="1" parent="WIyWlLk6GJQsqaUBKTNV-1">
          <mxGeometry x="50" y="989" width="180" height="140" as="geometry" />
        </mxCell>
        <mxCell id="4NDoe3Q7L930IOSC8Iq2-24" value="&lt;div&gt;+ crearPuerta()&lt;/div&gt;&lt;div&gt;+ crearVentana()&lt;/div&gt;&lt;div&gt;+ crearCocina()&lt;/div&gt;&lt;div&gt;+ crearBanio()&lt;/div&gt;&lt;div&gt;+ crearHabitacion()&lt;/div&gt;" style="text;strokeColor=none;fillColor=none;align=left;verticalAlign=top;spacingLeft=4;spacingRight=4;overflow=hidden;rotatable=0;points=[[0,0.5],[1,0.5]];portConstraint=eastwest;whiteSpace=wrap;html=1;" vertex="1" parent="4NDoe3Q7L930IOSC8Iq2-23">
          <mxGeometry y="50" width="180" height="90" as="geometry" />
        </mxCell>
        <mxCell id="4NDoe3Q7L930IOSC8Iq2-25" value="&lt;b&gt;FabricaComponentes&lt;/b&gt;&lt;div&gt;&lt;b&gt;ApartamentoModerna&lt;/b&gt;&lt;/div&gt;" style="swimlane;fontStyle=0;childLayout=stackLayout;horizontal=1;startSize=50;fillColor=none;horizontalStack=0;resizeParent=1;resizeParentMax=0;resizeLast=0;collapsible=1;marginBottom=0;whiteSpace=wrap;html=1;" vertex="1" parent="WIyWlLk6GJQsqaUBKTNV-1">
          <mxGeometry x="240" y="989" width="180" height="140" as="geometry" />
        </mxCell>
        <mxCell id="4NDoe3Q7L930IOSC8Iq2-26" value="&lt;div&gt;+ crearPuerta()&lt;/div&gt;&lt;div&gt;+ crearVentana()&lt;/div&gt;&lt;div&gt;+ crearCocina()&lt;/div&gt;&lt;div&gt;+ crearBanio()&lt;/div&gt;&lt;div&gt;+ crearHabitacion()&lt;/div&gt;" style="text;strokeColor=none;fillColor=none;align=left;verticalAlign=top;spacingLeft=4;spacingRight=4;overflow=hidden;rotatable=0;points=[[0,0.5],[1,0.5]];portConstraint=eastwest;whiteSpace=wrap;html=1;" vertex="1" parent="4NDoe3Q7L930IOSC8Iq2-25">
          <mxGeometry y="50" width="180" height="90" as="geometry" />
        </mxCell>
        <mxCell id="4NDoe3Q7L930IOSC8Iq2-27" value="&lt;b&gt;FabricaComponentes&lt;/b&gt;&lt;div&gt;&lt;b&gt;ApartamentoVictoriana&lt;/b&gt;&lt;/div&gt;" style="swimlane;fontStyle=0;childLayout=stackLayout;horizontal=1;startSize=50;fillColor=none;horizontalStack=0;resizeParent=1;resizeParentMax=0;resizeLast=0;collapsible=1;marginBottom=0;whiteSpace=wrap;html=1;" vertex="1" parent="WIyWlLk6GJQsqaUBKTNV-1">
          <mxGeometry x="430" y="989" width="180" height="140" as="geometry" />
        </mxCell>
        <mxCell id="4NDoe3Q7L930IOSC8Iq2-28" value="&lt;div&gt;+ crearPuerta()&lt;/div&gt;&lt;div&gt;+ crearVentana()&lt;/div&gt;&lt;div&gt;+ crearCocina()&lt;/div&gt;&lt;div&gt;+ crearBanio()&lt;/div&gt;&lt;div&gt;+ crearHabitacion()&lt;/div&gt;" style="text;strokeColor=none;fillColor=none;align=left;verticalAlign=top;spacingLeft=4;spacingRight=4;overflow=hidden;rotatable=0;points=[[0,0.5],[1,0.5]];portConstraint=eastwest;whiteSpace=wrap;html=1;" vertex="1" parent="4NDoe3Q7L930IOSC8Iq2-27">
          <mxGeometry y="50" width="180" height="90" as="geometry" />
        </mxCell>
        <mxCell id="4NDoe3Q7L930IOSC8Iq2-35" value="Puerta" style="swimlane;fontStyle=1;align=center;verticalAlign=top;childLayout=stackLayout;horizontal=1;startSize=26;horizontalStack=0;resizeParent=1;resizeParentMax=0;resizeLast=0;collapsible=1;marginBottom=0;whiteSpace=wrap;html=1;" vertex="1" parent="WIyWlLk6GJQsqaUBKTNV-1">
          <mxGeometry x="-40" y="1160" width="160" height="86" as="geometry" />
        </mxCell>
        <mxCell id="4NDoe3Q7L930IOSC8Iq2-36" value="- descripcion: String" style="text;strokeColor=none;fillColor=none;align=left;verticalAlign=top;spacingLeft=4;spacingRight=4;overflow=hidden;rotatable=0;points=[[0,0.5],[1,0.5]];portConstraint=eastwest;whiteSpace=wrap;html=1;" vertex="1" parent="4NDoe3Q7L930IOSC8Iq2-35">
          <mxGeometry y="26" width="160" height="26" as="geometry" />
        </mxCell>
        <mxCell id="4NDoe3Q7L930IOSC8Iq2-37" value="" style="line;strokeWidth=1;fillColor=none;align=left;verticalAlign=middle;spacingTop=-1;spacingLeft=3;spacingRight=3;rotatable=0;labelPosition=right;points=[];portConstraint=eastwest;strokeColor=inherit;" vertex="1" parent="4NDoe3Q7L930IOSC8Iq2-35">
          <mxGeometry y="52" width="160" height="8" as="geometry" />
        </mxCell>
        <mxCell id="4NDoe3Q7L930IOSC8Iq2-38" value="+ getDescripcion()" style="text;strokeColor=none;fillColor=none;align=left;verticalAlign=top;spacingLeft=4;spacingRight=4;overflow=hidden;rotatable=0;points=[[0,0.5],[1,0.5]];portConstraint=eastwest;whiteSpace=wrap;html=1;" vertex="1" parent="4NDoe3Q7L930IOSC8Iq2-35">
          <mxGeometry y="60" width="160" height="26" as="geometry" />
        </mxCell>
        <mxCell id="4NDoe3Q7L930IOSC8Iq2-40" value="Ventana" style="swimlane;fontStyle=1;align=center;verticalAlign=top;childLayout=stackLayout;horizontal=1;startSize=26;horizontalStack=0;resizeParent=1;resizeParentMax=0;resizeLast=0;collapsible=1;marginBottom=0;whiteSpace=wrap;html=1;" vertex="1" parent="WIyWlLk6GJQsqaUBKTNV-1">
          <mxGeometry x="140" y="1160" width="160" height="86" as="geometry" />
        </mxCell>
        <mxCell id="4NDoe3Q7L930IOSC8Iq2-41" value="- descripcion: String" style="text;strokeColor=none;fillColor=none;align=left;verticalAlign=top;spacingLeft=4;spacingRight=4;overflow=hidden;rotatable=0;points=[[0,0.5],[1,0.5]];portConstraint=eastwest;whiteSpace=wrap;html=1;" vertex="1" parent="4NDoe3Q7L930IOSC8Iq2-40">
          <mxGeometry y="26" width="160" height="26" as="geometry" />
        </mxCell>
        <mxCell id="4NDoe3Q7L930IOSC8Iq2-42" value="" style="line;strokeWidth=1;fillColor=none;align=left;verticalAlign=middle;spacingTop=-1;spacingLeft=3;spacingRight=3;rotatable=0;labelPosition=right;points=[];portConstraint=eastwest;strokeColor=inherit;" vertex="1" parent="4NDoe3Q7L930IOSC8Iq2-40">
          <mxGeometry y="52" width="160" height="8" as="geometry" />
        </mxCell>
        <mxCell id="4NDoe3Q7L930IOSC8Iq2-43" value="+ getDescripcion()" style="text;strokeColor=none;fillColor=none;align=left;verticalAlign=top;spacingLeft=4;spacingRight=4;overflow=hidden;rotatable=0;points=[[0,0.5],[1,0.5]];portConstraint=eastwest;whiteSpace=wrap;html=1;" vertex="1" parent="4NDoe3Q7L930IOSC8Iq2-40">
          <mxGeometry y="60" width="160" height="26" as="geometry" />
        </mxCell>
        <mxCell id="4NDoe3Q7L930IOSC8Iq2-44" value="Cocina" style="swimlane;fontStyle=1;align=center;verticalAlign=top;childLayout=stackLayout;horizontal=1;startSize=26;horizontalStack=0;resizeParent=1;resizeParentMax=0;resizeLast=0;collapsible=1;marginBottom=0;whiteSpace=wrap;html=1;" vertex="1" parent="WIyWlLk6GJQsqaUBKTNV-1">
          <mxGeometry x="320" y="1160" width="160" height="86" as="geometry" />
        </mxCell>
        <mxCell id="4NDoe3Q7L930IOSC8Iq2-45" value="- descripcion: String" style="text;strokeColor=none;fillColor=none;align=left;verticalAlign=top;spacingLeft=4;spacingRight=4;overflow=hidden;rotatable=0;points=[[0,0.5],[1,0.5]];portConstraint=eastwest;whiteSpace=wrap;html=1;" vertex="1" parent="4NDoe3Q7L930IOSC8Iq2-44">
          <mxGeometry y="26" width="160" height="26" as="geometry" />
        </mxCell>
        <mxCell id="4NDoe3Q7L930IOSC8Iq2-46" value="" style="line;strokeWidth=1;fillColor=none;align=left;verticalAlign=middle;spacingTop=-1;spacingLeft=3;spacingRight=3;rotatable=0;labelPosition=right;points=[];portConstraint=eastwest;strokeColor=inherit;" vertex="1" parent="4NDoe3Q7L930IOSC8Iq2-44">
          <mxGeometry y="52" width="160" height="8" as="geometry" />
        </mxCell>
        <mxCell id="4NDoe3Q7L930IOSC8Iq2-47" value="+ getDescripcion()" style="text;strokeColor=none;fillColor=none;align=left;verticalAlign=top;spacingLeft=4;spacingRight=4;overflow=hidden;rotatable=0;points=[[0,0.5],[1,0.5]];portConstraint=eastwest;whiteSpace=wrap;html=1;" vertex="1" parent="4NDoe3Q7L930IOSC8Iq2-44">
          <mxGeometry y="60" width="160" height="26" as="geometry" />
        </mxCell>
        <mxCell id="4NDoe3Q7L930IOSC8Iq2-48" value="Baño" style="swimlane;fontStyle=1;align=center;verticalAlign=top;childLayout=stackLayout;horizontal=1;startSize=26;horizontalStack=0;resizeParent=1;resizeParentMax=0;resizeLast=0;collapsible=1;marginBottom=0;whiteSpace=wrap;html=1;" vertex="1" parent="WIyWlLk6GJQsqaUBKTNV-1">
          <mxGeometry x="500" y="1160" width="160" height="86" as="geometry" />
        </mxCell>
        <mxCell id="4NDoe3Q7L930IOSC8Iq2-49" value="- descripcion: String" style="text;strokeColor=none;fillColor=none;align=left;verticalAlign=top;spacingLeft=4;spacingRight=4;overflow=hidden;rotatable=0;points=[[0,0.5],[1,0.5]];portConstraint=eastwest;whiteSpace=wrap;html=1;" vertex="1" parent="4NDoe3Q7L930IOSC8Iq2-48">
          <mxGeometry y="26" width="160" height="26" as="geometry" />
        </mxCell>
        <mxCell id="4NDoe3Q7L930IOSC8Iq2-50" value="" style="line;strokeWidth=1;fillColor=none;align=left;verticalAlign=middle;spacingTop=-1;spacingLeft=3;spacingRight=3;rotatable=0;labelPosition=right;points=[];portConstraint=eastwest;strokeColor=inherit;" vertex="1" parent="4NDoe3Q7L930IOSC8Iq2-48">
          <mxGeometry y="52" width="160" height="8" as="geometry" />
        </mxCell>
        <mxCell id="4NDoe3Q7L930IOSC8Iq2-51" value="+ getDescripcion()" style="text;strokeColor=none;fillColor=none;align=left;verticalAlign=top;spacingLeft=4;spacingRight=4;overflow=hidden;rotatable=0;points=[[0,0.5],[1,0.5]];portConstraint=eastwest;whiteSpace=wrap;html=1;" vertex="1" parent="4NDoe3Q7L930IOSC8Iq2-48">
          <mxGeometry y="60" width="160" height="26" as="geometry" />
        </mxCell>
        <mxCell id="4NDoe3Q7L930IOSC8Iq2-52" value="Habitacion" style="swimlane;fontStyle=1;align=center;verticalAlign=top;childLayout=stackLayout;horizontal=1;startSize=26;horizontalStack=0;resizeParent=1;resizeParentMax=0;resizeLast=0;collapsible=1;marginBottom=0;whiteSpace=wrap;html=1;" vertex="1" parent="WIyWlLk6GJQsqaUBKTNV-1">
          <mxGeometry x="680" y="1160" width="160" height="86" as="geometry" />
        </mxCell>
        <mxCell id="4NDoe3Q7L930IOSC8Iq2-53" value="- descripcion: String" style="text;strokeColor=none;fillColor=none;align=left;verticalAlign=top;spacingLeft=4;spacingRight=4;overflow=hidden;rotatable=0;points=[[0,0.5],[1,0.5]];portConstraint=eastwest;whiteSpace=wrap;html=1;" vertex="1" parent="4NDoe3Q7L930IOSC8Iq2-52">
          <mxGeometry y="26" width="160" height="26" as="geometry" />
        </mxCell>
        <mxCell id="4NDoe3Q7L930IOSC8Iq2-54" value="" style="line;strokeWidth=1;fillColor=none;align=left;verticalAlign=middle;spacingTop=-1;spacingLeft=3;spacingRight=3;rotatable=0;labelPosition=right;points=[];portConstraint=eastwest;strokeColor=inherit;" vertex="1" parent="4NDoe3Q7L930IOSC8Iq2-52">
          <mxGeometry y="52" width="160" height="8" as="geometry" />
        </mxCell>
        <mxCell id="4NDoe3Q7L930IOSC8Iq2-55" value="+ getDescripcion()" style="text;strokeColor=none;fillColor=none;align=left;verticalAlign=top;spacingLeft=4;spacingRight=4;overflow=hidden;rotatable=0;points=[[0,0.5],[1,0.5]];portConstraint=eastwest;whiteSpace=wrap;html=1;" vertex="1" parent="4NDoe3Q7L930IOSC8Iq2-52">
          <mxGeometry y="60" width="160" height="26" as="geometry" />
        </mxCell>
      </root>
    </mxGraphModel>
  </diagram>
</mxfile>
